<mxfile host="app.diagrams.net" modified="2021-04-02T19:14:40.772Z" agent="5.0 (Windows NT 10.0; Win64; x64) AppleWebKit/537.36 (KHTML, like Gecko) Chrome/88.0.4324.182 YaBrowser/21.2.4.165 Yowser/2.5 Safari/537.36" etag="KzBwsmX_klKvjmadmjud" version="14.1.2" type="github">
  <diagram id="LBYzpvDlrrYWJJtRtiba" name="Page-1">
    <mxGraphModel dx="1730" dy="920" grid="1" gridSize="10" guides="1" tooltips="1" connect="1" arrows="1" fold="1" page="1" pageScale="1" pageWidth="827" pageHeight="1169" math="0" shadow="0">
      <root>
        <mxCell id="0" />
        <mxCell id="1" parent="0" />
        <mxCell id="Q6rxHM2VwbGKasHHVfGn-41" value="" style="endArrow=none;html=1;rounded=0;" edge="1" parent="1">
          <mxGeometry width="50" height="50" relative="1" as="geometry">
            <mxPoint x="211" y="290" as="sourcePoint" />
            <mxPoint x="240" y="290" as="targetPoint" />
            <Array as="points" />
          </mxGeometry>
        </mxCell>
        <mxCell id="Q6rxHM2VwbGKasHHVfGn-8" value="" style="endArrow=none;html=1;exitX=0.5;exitY=1;exitDx=0;exitDy=0;entryX=0.5;entryY=0;entryDx=0;entryDy=0;" edge="1" parent="1" source="Q6rxHM2VwbGKasHHVfGn-14" target="Q6rxHM2VwbGKasHHVfGn-15">
          <mxGeometry width="50" height="50" relative="1" as="geometry">
            <mxPoint x="390" y="250" as="sourcePoint" />
            <mxPoint x="390" y="190" as="targetPoint" />
          </mxGeometry>
        </mxCell>
        <mxCell id="Q6rxHM2VwbGKasHHVfGn-15" value="movies" style="swimlane;childLayout=stackLayout;horizontal=1;startSize=30;horizontalStack=0;rounded=1;fontSize=14;fontStyle=0;strokeWidth=2;resizeParent=0;resizeLast=1;shadow=0;dashed=0;align=center;" vertex="1" parent="1">
          <mxGeometry x="310" y="430" width="160" height="90" as="geometry" />
        </mxCell>
        <mxCell id="Q6rxHM2VwbGKasHHVfGn-16" value="id                                     PK  &#xa;title&#xa;year" style="align=left;strokeColor=none;fillColor=none;spacingLeft=4;fontSize=12;verticalAlign=top;resizable=0;rotatable=0;part=1;" vertex="1" parent="Q6rxHM2VwbGKasHHVfGn-15">
          <mxGeometry y="30" width="160" height="60" as="geometry" />
        </mxCell>
        <mxCell id="Q6rxHM2VwbGKasHHVfGn-18" value="users" style="swimlane;childLayout=stackLayout;horizontal=1;startSize=30;horizontalStack=0;rounded=1;fontSize=14;fontStyle=0;strokeWidth=2;resizeParent=0;resizeLast=1;shadow=0;dashed=0;align=center;" vertex="1" parent="1">
          <mxGeometry x="312.5" y="40" width="160" height="130" as="geometry" />
        </mxCell>
        <mxCell id="Q6rxHM2VwbGKasHHVfGn-19" value="id                                    PK&#xa;name&#xa;surname&#xa;gender&#xa;register_date&#xa;email" style="align=left;strokeColor=none;fillColor=none;spacingLeft=4;fontSize=12;verticalAlign=top;resizable=0;rotatable=0;part=1;" vertex="1" parent="Q6rxHM2VwbGKasHHVfGn-18">
          <mxGeometry y="30" width="160" height="100" as="geometry" />
        </mxCell>
        <mxCell id="Q6rxHM2VwbGKasHHVfGn-20" value="ratings" style="swimlane;childLayout=stackLayout;horizontal=1;startSize=30;horizontalStack=0;rounded=1;fontSize=14;fontStyle=0;strokeWidth=2;resizeParent=0;resizeLast=1;shadow=0;dashed=0;align=center;" vertex="1" parent="1">
          <mxGeometry x="50" y="220" width="160" height="120" as="geometry" />
        </mxCell>
        <mxCell id="Q6rxHM2VwbGKasHHVfGn-21" value="id                                    PK&#xa;user_id                           FK&#xa;movie_id                        FK  &#xa;rating&#xa;timestamp" style="align=left;strokeColor=none;fillColor=none;spacingLeft=4;fontSize=12;verticalAlign=top;resizable=0;rotatable=0;part=1;" vertex="1" parent="Q6rxHM2VwbGKasHHVfGn-20">
          <mxGeometry y="30" width="160" height="90" as="geometry" />
        </mxCell>
        <mxCell id="Q6rxHM2VwbGKasHHVfGn-22" value="movies_genres" style="swimlane;childLayout=stackLayout;horizontal=1;startSize=30;horizontalStack=0;rounded=1;fontSize=14;fontStyle=0;strokeWidth=2;resizeParent=0;resizeLast=1;shadow=0;dashed=0;align=center;" vertex="1" parent="1">
          <mxGeometry x="520" y="437.5" width="160" height="75" as="geometry" />
        </mxCell>
        <mxCell id="Q6rxHM2VwbGKasHHVfGn-23" value="movie_id                        FK&#xa;genre_id                         FK" style="align=left;strokeColor=none;fillColor=none;spacingLeft=4;fontSize=12;verticalAlign=top;resizable=0;rotatable=0;part=1;" vertex="1" parent="Q6rxHM2VwbGKasHHVfGn-22">
          <mxGeometry y="30" width="160" height="45" as="geometry" />
        </mxCell>
        <mxCell id="Q6rxHM2VwbGKasHHVfGn-24" value="genres" style="swimlane;childLayout=stackLayout;horizontal=1;startSize=30;horizontalStack=0;rounded=1;fontSize=14;fontStyle=0;strokeWidth=2;resizeParent=0;resizeLast=1;shadow=0;dashed=0;align=center;" vertex="1" parent="1">
          <mxGeometry x="720" y="450" width="160" height="70" as="geometry" />
        </mxCell>
        <mxCell id="Q6rxHM2VwbGKasHHVfGn-34" value="" style="endArrow=none;html=1;rounded=0;entryX=-0.005;entryY=0.118;entryDx=0;entryDy=0;entryPerimeter=0;" edge="1" parent="Q6rxHM2VwbGKasHHVfGn-24" target="Q6rxHM2VwbGKasHHVfGn-25">
          <mxGeometry relative="1" as="geometry">
            <mxPoint x="-40" y="41" as="sourcePoint" />
            <mxPoint x="120" y="39.5" as="targetPoint" />
          </mxGeometry>
        </mxCell>
        <mxCell id="Q6rxHM2VwbGKasHHVfGn-25" value="id                                   PK    &#xa;genre" style="align=left;strokeColor=none;fillColor=none;spacingLeft=4;fontSize=12;verticalAlign=top;resizable=0;rotatable=0;part=1;" vertex="1" parent="Q6rxHM2VwbGKasHHVfGn-24">
          <mxGeometry y="30" width="160" height="40" as="geometry" />
        </mxCell>
        <mxCell id="Q6rxHM2VwbGKasHHVfGn-13" value="tags" style="swimlane;childLayout=stackLayout;horizontal=1;startSize=30;horizontalStack=0;rounded=1;fontSize=14;fontStyle=0;strokeWidth=2;resizeParent=0;resizeLast=1;shadow=0;dashed=0;align=center;" vertex="1" parent="1">
          <mxGeometry x="312.5" y="240" width="155" height="110" as="geometry" />
        </mxCell>
        <mxCell id="Q6rxHM2VwbGKasHHVfGn-14" value="id                                  PK&#xa;users_id                       FK&#xa;movie_id                      FK &#xa;tag&#xa;timestamp" style="align=left;strokeColor=none;fillColor=none;spacingLeft=4;fontSize=12;verticalAlign=top;resizable=0;rotatable=0;part=1;" vertex="1" parent="Q6rxHM2VwbGKasHHVfGn-13">
          <mxGeometry y="30" width="155" height="80" as="geometry" />
        </mxCell>
        <mxCell id="Q6rxHM2VwbGKasHHVfGn-39" value="" style="endArrow=none;html=1;rounded=0;exitX=1;exitY=0.25;exitDx=0;exitDy=0;" edge="1" parent="1">
          <mxGeometry width="50" height="50" relative="1" as="geometry">
            <mxPoint x="210" y="280" as="sourcePoint" />
            <mxPoint x="240" y="280" as="targetPoint" />
          </mxGeometry>
        </mxCell>
        <mxCell id="Q6rxHM2VwbGKasHHVfGn-40" value="" style="strokeWidth=2;html=1;shape=mxgraph.flowchart.annotation_1;align=left;pointerEvents=1;" vertex="1" parent="1">
          <mxGeometry x="262.5" y="80" width="50" height="220" as="geometry" />
        </mxCell>
        <mxCell id="Q6rxHM2VwbGKasHHVfGn-33" value="" style="endArrow=none;html=1;rounded=0;exitX=1;exitY=0.25;exitDx=0;exitDy=0;entryX=-0.015;entryY=0.162;entryDx=0;entryDy=0;entryPerimeter=0;" edge="1" parent="1" source="Q6rxHM2VwbGKasHHVfGn-16" target="Q6rxHM2VwbGKasHHVfGn-23">
          <mxGeometry relative="1" as="geometry">
            <mxPoint x="480" y="81" as="sourcePoint" />
            <mxPoint x="510" y="81" as="targetPoint" />
          </mxGeometry>
        </mxCell>
        <mxCell id="Q6rxHM2VwbGKasHHVfGn-42" value="" style="strokeWidth=2;html=1;shape=mxgraph.flowchart.annotation_1;align=left;pointerEvents=1;" vertex="1" parent="1">
          <mxGeometry x="260" y="315" width="50" height="155" as="geometry" />
        </mxCell>
        <mxCell id="Q6rxHM2VwbGKasHHVfGn-43" value="" style="endArrow=none;html=1;" edge="1" parent="1">
          <mxGeometry width="50" height="50" relative="1" as="geometry">
            <mxPoint x="240" y="280" as="sourcePoint" />
            <mxPoint x="240" y="130" as="targetPoint" />
          </mxGeometry>
        </mxCell>
        <mxCell id="Q6rxHM2VwbGKasHHVfGn-44" value="" style="endArrow=none;html=1;" edge="1" parent="1">
          <mxGeometry width="50" height="50" relative="1" as="geometry">
            <mxPoint x="240" y="130" as="sourcePoint" />
            <mxPoint x="260" y="130" as="targetPoint" />
          </mxGeometry>
        </mxCell>
        <mxCell id="Q6rxHM2VwbGKasHHVfGn-45" value="" style="endArrow=none;html=1;" edge="1" parent="1">
          <mxGeometry width="50" height="50" relative="1" as="geometry">
            <mxPoint x="240" y="380" as="sourcePoint" />
            <mxPoint x="240" y="290" as="targetPoint" />
          </mxGeometry>
        </mxCell>
        <mxCell id="Q6rxHM2VwbGKasHHVfGn-46" value="" style="endArrow=none;html=1;" edge="1" parent="1">
          <mxGeometry width="50" height="50" relative="1" as="geometry">
            <mxPoint x="240" y="380" as="sourcePoint" />
            <mxPoint x="260" y="380" as="targetPoint" />
          </mxGeometry>
        </mxCell>
      </root>
    </mxGraphModel>
  </diagram>
</mxfile>
